<svg xmlns="http://www.w3.org/2000/svg" viewBox="0 -37 274 274" width="274" height="274" role="img" aria-label="Migam">
  <defs>
    <linearGradient id="mg-teal" gradientUnits="userSpaceOnUse" x1="0" y1="0" x2="128" y2="128">
      <stop offset="0" stop-color="#015f62"/>
      <stop offset="0.5" stop-color="#008f96"/>
      <stop offset="1" stop-color="#00a299"/>
    </linearGradient>
    <linearGradient id="mg-teal-dot" gradientUnits="userSpaceOnUse" x1="56" y1="164" x2="128" y2="164">
      <stop offset="0" stop-color="#00a299"/>
      <stop offset="0.5" stop-color="#008f96"/>
      <stop offset="1" stop-color="#015f62"/>
    </linearGradient>
    <linearGradient id="mg-amber" gradientUnits="userSpaceOnUse" x1="146" y1="128" x2="274" y2="0">
      <stop offset="0" stop-color="#f8db36"/>
      <stop offset="0.5" stop-color="#e99138"/>
      <stop offset="1" stop-color="#db6136"/>
    </linearGradient>
    <linearGradient id="mg-amber-dot" gradientUnits="userSpaceOnUse" x1="146" y1="164" x2="218" y2="164">
      <stop offset="0" stop-color="#db6136"/>
      <stop offset="0.5" stop-color="#e99138"/>
      <stop offset="1" stop-color="#f8db36"/>
    </linearGradient>
  </defs>
  <path fill="url(#mg-teal)" d="M64 0a64 64 0 0 1 64 64v100H92v-36H64A64 64 0 0 1 64 0Z"/>
  <circle fill="url(#mg-teal-dot)" cx="92" cy="164" r="36"/>
  <path fill="url(#mg-amber)" d="M210 0a64 64 0 0 1 0 128H182v36h-36V64A64 64 0 0 1 210 0Z"/>
  <circle fill="url(#mg-amber-dot)" cx="182" cy="164" r="36"/>
</svg>
